<?xml version="1.0" encoding="utf-8"?>
<!-- Generator: Adobe Illustrator 27.5.0, SVG Export Plug-In . SVG Version: 6.00 Build 0)  -->
<svg version="1.1" xmlns="http://www.w3.org/2000/svg" xmlns:xlink="http://www.w3.org/1999/xlink" x="0px" y="0px"
	 viewBox="0 0 3710 3710" style="enable-background:new 0 0 3710 3710;" xml:space="preserve">
<g id="Background">
	<g>
		<g>
			<rect style="fill:#FFFFFF;" width="3710" height="3710"/>
		</g>
	</g>
</g>
<g id="Illustration">
	<g>
		<path style="fill:#F4F7FA;" d="M2561.173,707.181c90.666,129.794-15.642,340.222,118.891,437.838
			c130.958,95.022,291.836-60.731,415.255,21.063c183.086,121.337,149.651,676.552-118.03,1021.518
			c-80.501,103.743-147.764,144.108-177.555,261.437c-63.969,251.934,160.85,401.801,118.067,526.403
			c-96.332,280.56-1577.839,515.982-2172.287-327.192c-277.631-393.797-319.171-962.443-71.116-1394.333
			C1122.63,473.496,2357.733,415.947,2561.173,707.181z"/>
		<g>
			<g>
				<defs>
					<path id="SVGID_1_" d="M2200.688,2445.816c-58.736-100.167-1.74-266.977,68.03-364.635
						c81.458-114.018,147.638-88.014,204.09-181.618c105.106-174.276-81.204-335.884,10.852-520.038
						c75.257-150.546,228.325-99.669,304.078-270.177c54.663-123.037,1.235-208.666,84.107-300.08
						c7.084-7.815,84.696-90.996,178.957-75.93c95.137,15.207,151.593,121.608,170.061,195.071
						c34.139,135.794-56.424,179.303-75.028,355.13c-25.326,239.383,127.549,300.434,72.467,472.843
						c-45.484,142.37-160.219,133.578-207.516,292.435c-43.919,147.515,39.056,208.701,0,305.112
						C2920.938,2575.722,2320.492,2650.129,2200.688,2445.816z"/>
				</defs>
				
					<linearGradient id="SVGID_00000124123203989321806100000010883869860675801995_" gradientUnits="userSpaceOnUse" x1="2492.8616" y1="929.7466" x2="2759.6389" y2="1868.0663">
					<stop  offset="0.0036" style="stop-color:#E38DDD"/>
					<stop  offset="1" style="stop-color:#9571F6"/>
				</linearGradient>
				
					<use xlink:href="#SVGID_1_"  style="overflow:visible;fill:url(#SVGID_00000124123203989321806100000010883869860675801995_);"/>
				<clipPath id="SVGID_00000119802683382783510060000011418739777145534092_">
					<use xlink:href="#SVGID_1_"  style="overflow:visible;"/>
				</clipPath>
				<g style="clip-path:url(#SVGID_00000119802683382783510060000011418739777145534092_);">
					<path style="opacity:0.7;fill:#FFFFFF;" d="M2280.234,2603.483c-0.942,0-1.75-0.712-1.855-1.671
						c-0.108-1.025,0.635-1.946,1.662-2.053c101.933-10.792,197.134-42.431,282.954-94.041
						c81.289-48.886,165.338-99.432,202.636-192.499c28.2-70.362,12.674-122.213-6.982-187.857
						c-19.148-63.945-42.977-143.526-29.82-265.147c7.51-69.444,16.859-155.87,77.048-237.659
						c35.065-47.65,69.091-68.054,99.11-86.056c31.411-18.837,56.221-33.716,70.701-73.532
						c23.627-64.982,8.11-120.864-9.854-185.568c-11.103-39.979-22.58-81.32-26.932-130.412
						c-12.25-138.173,52.981-286.743,193.881-441.582c0.698-0.765,1.881-0.815,2.637-0.124c0.763,0.694,0.818,1.874,0.127,2.637
						c-140.17,154.035-205.081,301.649-192.926,438.74c4.322,48.751,15.754,89.924,26.808,129.742
						c18.141,65.322,33.804,121.739,9.766,187.842c-14.93,41.063-41.51,57.003-72.289,75.46
						c-29.719,17.821-63.402,38.02-98.024,85.067c-59.588,80.977-68.879,166.849-76.344,235.847
						c-13.072,120.872,10.637,200.052,29.687,263.676c19.865,66.343,35.557,118.743,6.875,190.316
						c-37.768,94.231-122.362,145.106-204.175,194.306c-86.296,51.897-182.012,83.709-284.492,94.558
						C2280.367,2603.478,2280.299,2603.483,2280.234,2603.483z"/>
					<path style="opacity:0.7;fill:#FFFFFF;" d="M2781.813,1665.832c-0.717,0-1.398-0.416-1.708-1.113
						c-82.253-186.212-95.178-330.374-91.537-418.519c3.951-95.658,27.763-147.998,28.001-148.515
						c0.437-0.936,1.552-1.335,2.481-0.908c0.936,0.433,1.343,1.543,0.909,2.479c-0.238,0.512-23.787,52.352-27.672,147.356
						c-3.586,87.705,9.329,231.176,91.234,416.598c0.417,0.944-0.01,2.046-0.955,2.463
						C2782.322,1665.78,2782.067,1665.832,2781.813,1665.832z"/>
					<path style="opacity:0.7;fill:#FFFFFF;" d="M2727.567,1961.276c-0.828,0-1.581-0.553-1.806-1.389
						c-0.264-0.997,0.329-2.019,1.327-2.283c236.297-62.711,352.647-199.292,408.64-302.827
						c60.7-112.232,65.573-210.93,65.616-211.914c0.042-1.028,0.949-1.819,1.943-1.785c1.03,0.044,1.832,0.914,1.786,1.944
						c-0.042,0.991-4.922,100.409-65.974,213.376c-35.857,66.343-83.786,124.34-142.455,172.383
						c-73.309,60.03-163.679,104.586-268.598,132.431C2727.887,1961.255,2727.724,1961.276,2727.567,1961.276z"/>
					<path style="opacity:0.7;fill:#FFFFFF;" d="M2654.265,2456.803c-0.433,0-0.867-0.148-1.219-0.451
						c-176.842-152.309-233.947-309.438-250.708-414.433c-18.18-113.855,5.867-192.779,6.112-193.563
						c0.31-0.981,1.35-1.54,2.341-1.224c0.985,0.307,1.532,1.354,1.226,2.339c-0.245,0.776-24.051,79.023-5.959,192.067
						c16.697,104.325,73.524,260.486,249.427,411.985c0.779,0.673,0.867,1.852,0.196,2.634
						C2655.312,2456.585,2654.79,2456.803,2654.265,2456.803z"/>
					<path style="opacity:0.7;fill:#FFFFFF;" d="M2943.328,1124.995c-0.727,0-1.418-0.429-1.718-1.141
						c-0.404-0.949,0.042-2.044,0.991-2.446c171.04-72.362,243.827-195.682,274.769-286.393
						c33.556-98.375,26.538-180.716,26.463-181.536c-0.094-1.027,0.662-1.935,1.688-2.029c1.014-0.095,1.933,0.66,2.028,1.69
						c0.078,0.826,7.175,83.831-26.596,182.933c-31.173,91.484-104.518,215.845-276.897,288.774
						C2943.817,1124.948,2943.572,1124.995,2943.328,1124.995z"/>
				</g>
			</g>
		</g>
		<g>
			<g>
				<defs>
					<path id="SVGID_00000093143612028431934850000001277497716290754997_" d="M2209.334,2600.133
						c-115.859-49.309-175.878-193.059-179.712-307.104c-5.917-176.025,124.597-204.448,140.282-393.615
						c16.68-201.159-124.797-242.672-100.883-433.421c21.903-174.708,143.547-163.494,196.981-369.382
						c53.732-207.033-48.239-292.29,37.655-460.331c16.375-32.036,83.702-163.753,201.684-172.415
						c98.71-7.248,187.903,74.944,225.336,153.42c42.327,88.742,0.711,135.507,4.794,292.457
						c5.577,214.414,85.579,216.709,71.053,362.342c-19.413,194.63-164.09,235.205-146.597,391.025
						c11.765,104.792,85.044,105.001,127.798,227.768c61.095,175.428-13.872,389.388-133.76,524.3
						C2638.208,2432.909,2408.628,2684.952,2209.334,2600.133z"/>
				</defs>
				
					<linearGradient id="SVGID_00000073694510740957251620000013212277921721379489_" gradientUnits="userSpaceOnUse" x1="2029.4274" y1="1540.4714" x2="2809.4702" y2="1540.4714">
					<stop  offset="0.0036" style="stop-color:#E38DDD"/>
					<stop  offset="1" style="stop-color:#9571F6"/>
				</linearGradient>
				
					<use xlink:href="#SVGID_00000093143612028431934850000001277497716290754997_"  style="overflow:visible;fill:url(#SVGID_00000073694510740957251620000013212277921721379489_);"/>
				<clipPath id="SVGID_00000050621437278063019450000009081655125561426072_">
					<use xlink:href="#SVGID_00000093143612028431934850000001277497716290754997_"  style="overflow:visible;"/>
				</clipPath>
				<g style="clip-path:url(#SVGID_00000050621437278063019450000009081655125561426072_);">
					<path style="opacity:0.7;fill:#FFFFFF;" d="M2277.854,2661.857c-0.46,0-0.916-0.166-1.278-0.505
						c-0.753-0.706-0.789-1.887-0.085-2.639c131.287-139.889,195.824-280.954,191.827-419.277
						c-1.897-65.495-18.581-104.549-37.898-149.77c-19.405-45.422-41.399-96.901-56.169-188.145
						c-29.123-179.88-14.095-342.819,44.662-484.291c32.268-77.69,65.472-118.313,92.15-150.955
						c30.355-37.139,54.33-66.471,63.934-131.791c11.2-76.153-9.854-126.889-34.231-185.638
						c-20.579-49.594-43.906-105.807-51.204-187.529c-10.741-120.245,8.498-246.353,57.179-374.824
						c0.368-0.966,1.444-1.447,2.409-1.084c0.965,0.365,1.451,1.443,1.085,2.407c-48.482,127.939-67.643,253.491-56.958,373.168
						c7.25,81.152,30.459,137.084,50.937,186.431c24.592,59.259,45.826,110.439,34.479,187.614
						c-9.756,66.338-34.019,96.025-64.739,133.609c-26.525,32.451-59.536,72.839-91.593,150.022
						c-58.487,140.822-73.433,303.08-44.427,482.264c14.701,90.794,36.597,142.051,55.918,187.275
						c19.467,45.57,36.281,84.927,38.195,151.129c4.029,139.345-60.85,281.306-192.831,421.94
						C2278.848,2661.66,2278.353,2661.857,2277.854,2661.857z"/>
					<path style="opacity:0.7;fill:#FFFFFF;" d="M2573.025,1029.735c-0.271,0-0.541-0.059-0.802-0.181
						c-137.48-65.317-220.979-193.622-266.815-289.754c-49.623-104.076-67.021-193.936-67.19-194.831
						c-0.192-1.014,0.473-1.99,1.487-2.182c1.004-0.194,1.992,0.469,2.184,1.485c0.17,0.891,17.495,90.356,66.933,194.01
						c45.572,95.553,128.542,223.067,265.006,287.899c0.929,0.443,1.327,1.557,0.883,2.489
						C2574.391,1029.341,2573.723,1029.735,2573.025,1029.735z"/>
					<path style="opacity:0.7;fill:#FFFFFF;" d="M2408.541,1450.996c-1.001,0-1.829-0.789-1.865-1.796
						c-0.039-1.03,0.763-1.897,1.793-1.936c185.174-6.971,284.887-120.569,335.928-214.639
						c55.409-102.117,67.083-203.944,67.197-204.961c0.111-1.025,1.053-1.755,2.057-1.653c1.027,0.112,1.767,1.035,1.653,2.06
						c-0.111,1.022-11.843,103.478-67.568,206.232c-32.76,60.407-74.088,109.121-122.838,144.789
						c-60.964,44.603-133.732,68.796-216.285,71.904C2408.587,1450.996,2408.564,1450.996,2408.541,1450.996z"/>
					<path style="opacity:0.7;fill:#FFFFFF;" d="M2359.684,1661.534c-0.248,0-0.499-0.051-0.743-0.155
						c-158.503-68.618-217.302-188.618-238.716-277.202c-23.19-95.915-8.713-176.718-8.563-177.523
						c0.186-1.017,1.17-1.687,2.174-1.496c1.014,0.187,1.685,1.161,1.496,2.174c-0.147,0.799-14.486,80.94,8.554,176.105
						c21.234,87.71,79.509,206.535,236.541,274.516c0.945,0.409,1.379,1.508,0.971,2.455
						C2361.092,1661.112,2360.404,1661.534,2359.684,1661.534z"/>
					<path style="opacity:0.7;fill:#FFFFFF;" d="M2464.56,2186.92c-0.877,0-1.659-0.624-1.832-1.519
						c-0.192-1.012,0.473-1.99,1.487-2.182c167.989-31.947,256.475-146.344,301.124-236.686
						c48.43-97.987,57.186-189.529,57.271-190.442c0.094-1.028,1.033-1.75,2.028-1.692c1.027,0.093,1.783,1.001,1.688,2.028
						c-0.082,0.921-8.906,93.156-57.639,191.76c-45.024,91.102-134.276,206.467-303.774,238.699
						C2464.795,2186.908,2464.677,2186.92,2464.56,2186.92z"/>
					<path style="opacity:0.7;fill:#FFFFFF;" d="M2403.466,2493.627c-0.091,0-0.179-0.007-0.271-0.02
						c-151.269-21.854-235.563-137.106-279.642-229.942c-47.674-100.41-59.833-196.95-59.95-197.913
						c-0.124-1.024,0.606-1.954,1.63-2.078c0.997-0.135,1.952,0.605,2.08,1.628c0.114,0.957,12.221,96.98,59.657,196.852
						c43.684,91.973,127.163,206.146,276.76,227.756c1.02,0.148,1.728,1.095,1.581,2.116
						C2405.177,2492.956,2404.378,2493.627,2403.466,2493.627z"/>
				</g>
			</g>
		</g>
		<g>
			<g>
				
					<linearGradient id="SVGID_00000112624541828779686580000018207269855899913883_" gradientUnits="userSpaceOnUse" x1="2235.0874" y1="1775.2511" x2="1474.6337" y2="2000.6492">
					<stop  offset="0" style="stop-color:#D8DEE8"/>
					<stop  offset="1" style="stop-color:#A2A7AE"/>
				</linearGradient>
				<path style="opacity:0.54;fill:url(#SVGID_00000112624541828779686580000018207269855899913883_);" d="M936.124,2941.644
					c-46.116,3.664-83.835-35.549-83.835-87.433v-1812.92c0-51.884,37.719-92.306,83.835-90.12l1976.868,130.637
					c34.987,1.659,72.489,3.052,72.489,47.918v1567.717c0,44.866-28.332,83.618-63.319,86.398L936.124,2941.644z"/>
				
					<linearGradient id="SVGID_00000183231707741123580630000000016977427258760371_" gradientUnits="userSpaceOnUse" x1="2817.4546" y1="490.9552" x2="1157.4672" y2="3084.6899">
					<stop  offset="0" style="stop-color:#FFFFFF"/>
					<stop  offset="0.9964" style="stop-color:#EBEFF2"/>
				</linearGradient>
				<path style="fill:url(#SVGID_00000183231707741123580630000000016977427258760371_);" d="M952.233,2941.644
					c-46.116,3.664-83.835-35.549-83.835-87.433v-1812.92c0-51.884,37.719-92.306,83.835-90.12l1986.038,94.184
					c34.987,1.659,63.319,39.505,63.319,84.371v1567.717c0,44.866-28.332,83.618-63.319,86.398L952.233,2941.644z"/>
				
					<linearGradient id="SVGID_00000102537209027116680790000009638068504682130078_" gradientUnits="userSpaceOnUse" x1="2979.8159" y1="705.2032" x2="478.7785" y2="3517.2527">
					<stop  offset="0" style="stop-color:#444B8C"/>
					<stop  offset="0.9964" style="stop-color:#26264F"/>
				</linearGradient>
				<path style="fill:url(#SVGID_00000102537209027116680790000009638068504682130078_);" d="M2938.271,1099.444L952.233,1013.1
					c-15.597-0.678-28.264,12.974-28.264,30.495v1806.531c0,17.521,12.667,30.767,28.264,29.59l1986.038-149.962
					c11.876-0.897,21.489-13.986,21.489-29.237V1127.993C2959.76,1112.741,2950.147,1099.96,2938.271,1099.444z"/>
				<g style="opacity:0.53;">
					<path style="fill:#FFFFFF;" d="M1652.534,2702.247c-8.119,0-14.702-8.046-14.702-17.969V1186.105
						c0-9.924,6.583-17.969,14.702-17.969c8.119,0,14.702,8.046,14.702,17.969v1498.172
						C1667.235,2694.201,1660.653,2702.247,1652.534,2702.247z"/>
					<path style="fill:#FFFFFF;" d="M2355.306,2655.867c-8.119,0-14.702-8.046-14.702-17.969V1209.973
						c0-9.923,6.583-17.969,14.702-17.969c8.119,0,14.702,8.046,14.702,17.969v1427.925
						C2370.008,2647.821,2363.425,2655.867,2355.306,2655.867z"/>
				</g>
			</g>
			<g>
				
					<linearGradient id="SVGID_00000049207142934946797570000005119529488860175756_" gradientUnits="userSpaceOnUse" x1="2526.8743" y1="2171.8762" x2="2702.6831" y2="3421.3816">
					<stop  offset="0" style="stop-color:#444B8C"/>
					<stop  offset="0.9964" style="stop-color:#26264F"/>
				</linearGradient>
				<path style="opacity:0.3;fill:url(#SVGID_00000049207142934946797570000005119529488860175756_);" d="M2281.989,1735.006
					v546.904c0,12.774,11.156,22.682,23.841,21.174l465.695-55.37c15.513-1.844,25.838-16.931,21.92-32.053
					c-12.977-50.106-37.817-155.552-37.931-228.993c-0.003-1.93-1.046-3.693-2.742-4.614l-462.997-251.677
					C2286.264,1728.468,2281.989,1731.01,2281.989,1735.006z"/>
				
					<linearGradient id="SVGID_00000043448180872644680100000014880027561277684659_" gradientUnits="userSpaceOnUse" x1="2655.6003" y1="1696.2225" x2="2619.697" y2="2960.0095">
					<stop  offset="0" style="stop-color:#FFC444"/>
					<stop  offset="0.9964" style="stop-color:#F36F56"/>
				</linearGradient>
				<path style="fill:url(#SVGID_00000043448180872644680100000014880027561277684659_);" d="M2291.139,1725.207l562.549-57.658
					c4.413-0.453,8.411,2.602,9.113,6.982c7.464,46.584,50.377,291.509,150.163,448.312c3.127,4.915,0.391,11.427-5.305,12.648
					l-503.338,107.873c-2.539,0.544-5.171-0.113-7.154-1.788c-20.991-17.73-138.097-131.045-213.385-506.397
					C2282.813,1730.341,2286.231,1725.71,2291.139,1725.207z"/>
				<g>
					
						<linearGradient id="SVGID_00000076574400965785887580000002705700471188035475_" gradientUnits="userSpaceOnUse" x1="2380.8069" y1="2616.0684" x2="2404.449" y2="2784.0969" gradientTransform="matrix(0.9865 -0.1639 0.1639 0.9865 197.12 -7.8751)">
						<stop  offset="0" style="stop-color:#FFC444"/>
						<stop  offset="0.9964" style="stop-color:#F36F56"/>
					</linearGradient>
					<path style="fill:url(#SVGID_00000076574400965785887580000002705700471188035475_);" d="M2964.319,2197.988l-6.103-36.735
						c0,0,10.802-17.9-5.165-31.089c-15.967-13.188,23.403-6.887,26.495,22.674l-9.876,17.777l16.828,23.689L2964.319,2197.988z"/>
					
						<linearGradient id="SVGID_00000004520482034366153630000006756182781138515354_" gradientUnits="userSpaceOnUse" x1="490.4596" y1="3149.3616" x2="512.0059" y2="3302.4944" gradientTransform="matrix(1.2089 -0.6121 0.4517 0.8922 546.2661 -192.3588)">
						<stop  offset="0" style="stop-color:#FFC444"/>
						<stop  offset="0.9964" style="stop-color:#F36F56"/>
					</linearGradient>
					<path style="fill:url(#SVGID_00000004520482034366153630000006756182781138515354_);" d="M2539.629,2293.775l-15.104-37.194
						c0,0,3.222-12.507-4.903-19.496c-8.126-6.99-4.337-4.953-4.399,2.227c-0.062,7.18-10.753,0.489-19.738-5.989
						c-8.984-6.479-4.481,8.193,0.68,15.639c5.161,7.446,7.983,12.003,17.419,14.565c9.437,2.562,9.901,30.249,9.901,30.249
						H2539.629z"/>
					<path style="fill:#26264F;" d="M2830.545,2984.208c1.475-5.378,14.292-1.224,22.666,1.605
						c8.375,2.829,11.341,7.151,11.927,10.676c0.586,3.525-2.276,11.216-9.412,6.039
						C2849.869,2998.279,2829.241,2988.961,2830.545,2984.208z"/>
					
						<linearGradient id="SVGID_00000137832948430648438230000018283010698725768323_" gradientUnits="userSpaceOnUse" x1="3665.6907" y1="2174.3599" x2="3694.3994" y2="2259.803" gradientTransform="matrix(0.9736 0.2282 -0.2282 0.9736 -219.7599 -26.8234)">
						<stop  offset="0" style="stop-color:#FFC444"/>
						<stop  offset="0.9964" style="stop-color:#F36F56"/>
					</linearGradient>
					<path style="fill:url(#SVGID_00000137832948430648438230000018283010698725768323_);" d="M2851.219,2966.882l1.168,22.444
						c0,0,5.116,5.617,7.607,4.003l3.406-24.754L2851.219,2966.882z"/>
					
						<linearGradient id="SVGID_00000089573239700973220700000014694153964824570814_" gradientUnits="userSpaceOnUse" x1="3628.9199" y1="2187.0273" x2="3657.4165" y2="2271.8391" gradientTransform="matrix(0.9736 0.2282 -0.2282 0.9736 -219.7599 -26.8234)">
						<stop  offset="0" style="stop-color:#FFC444"/>
						<stop  offset="0.9964" style="stop-color:#F36F56"/>
					</linearGradient>
					<polygon style="fill:url(#SVGID_00000089573239700973220700000014694153964824570814_);" points="2811.083,2944.358 
						2829.2,2957.889 2823.42,2967.306 2804.443,2957.314 					"/>
					<path style="fill:#26264F;" d="M2800.648,2983.716c0,0,12.632,6.63,20.441,0.077c5.021-4.212,10.238-12.144,13.322-17.27
						c1.675-2.783,0.909-6.374-1.754-8.234c-3.867-2.7-9.239-5.895-12.039-5.083c-4.683,1.358-4.429,17.735-7.184,21.342
						C2810.68,2978.156,2801.283,2978.682,2800.648,2983.716z"/>
					
						<linearGradient id="SVGID_00000054979949938613273670000002976754364009566084_" gradientUnits="userSpaceOnUse" x1="3007.5659" y1="2797.5166" x2="2750.8855" y2="2803.0168">
						<stop  offset="0" style="stop-color:#311944"/>
						<stop  offset="1" style="stop-color:#893976"/>
					</linearGradient>
					<path style="fill:url(#SVGID_00000054979949938613273670000002976754364009566084_);" d="M2852.29,2622.182
						c-8.384,49.464-14.905,107.515-16.045,172.548c-1.188,67.789,3.733,128.281,10.885,179.556c1.556,1.25,4.395,3.195,8.432,4.265
						c4.726,1.252,8.7,0.667,10.725,0.224c9.19-24.356,15.861-45.17,20.497-60.702c12.245-41.02,18.371-62.062,18.507-88.146
						c0.128-24.476-4.57-23.665-4.102-50.64c0.416-23.99,4.425-41.577,10.443-67.296c4.132-17.659,10.529-41.318,20.572-68.819
						C2905.566,2636.176,2878.928,2629.179,2852.29,2622.182z"/>
					
						<linearGradient id="SVGID_00000182487983992712403340000005929769278405595050_" gradientUnits="userSpaceOnUse" x1="3744.9082" y1="2130.551" x2="3610.1099" y2="1978.5638" gradientTransform="matrix(0.9736 0.2282 -0.2282 0.9736 -219.7599 -26.8234)">
						<stop  offset="0" style="stop-color:#311944"/>
						<stop  offset="1" style="stop-color:#893976"/>
					</linearGradient>
					<path style="opacity:0.3;fill:url(#SVGID_00000182487983992712403340000005929769278405595050_);" d="M2853.798,2957.73
						c-1.311-18.46,11.065-23.85,14.955-45.973c4.753-27.029-11.49-31.677-9.653-62.89c1.477-25.083,12.124-24.784,16.307-54.716
						c4.446-31.81-6.342-40.999,0.607-59.092c3.864-10.059,13.248-22.816,38.116-33.276c4.094-16.189,9.846-36.078,18.074-58.611
						c-26.638-6.996-53.275-13.994-79.913-20.99c-8.384,49.464-14.905,107.515-16.045,172.548
						c-1.188,67.789,3.733,128.281,10.885,179.556c1.556,1.25,4.395,3.195,8.432,4.265c2.143,0.568,4.095,0.728,5.817,0.725
						C2857.463,2973.174,2854.383,2965.968,2853.798,2957.73z"/>
					
						<linearGradient id="SVGID_00000119092180904779624500000000382206169984961171_" gradientUnits="userSpaceOnUse" x1="3087.4561" y1="2944.4751" x2="2827.1077" y2="2792.2996">
						<stop  offset="0" style="stop-color:#311944"/>
						<stop  offset="1" style="stop-color:#893976"/>
					</linearGradient>
					<path style="fill:url(#SVGID_00000119092180904779624500000000382206169984961171_);" d="M2788.904,2598.269
						c-3.729,11.52-9.812,28.859-18.93,49.257c-20.561,45.996-34.82,58.93-45.008,89.768c-11.879,35.96-8.625,67.217-7.388,79.106
						c8.449,81.162,71.763,132.854,88.679,145.845c3.76-6.428,7.521-12.856,11.281-19.283c-3.268-7.481-7.917-19.381-11.385-34.513
						c-5.919-25.836-3.483-39.669-5.877-64.306c-4.319-44.448-16.3-41.105-13.937-62.667c3.744-34.172,33.698-41.303,72.766-99.158
						c11.195-16.578,18.837-30.952,23.274-39.843C2851.22,2627.739,2820.063,2613.004,2788.904,2598.269z"/>
					
						<linearGradient id="SVGID_00000072263164276174291580000012364695802998225553_" gradientUnits="userSpaceOnUse" x1="2728.1321" y1="2165.8982" x2="2852.0691" y2="2620.9385">
						<stop  offset="0" style="stop-color:#FF9085"/>
						<stop  offset="1" style="stop-color:#FB6FBB"/>
					</linearGradient>
					<path style="fill:url(#SVGID_00000072263164276174291580000012364695802998225553_);" d="M2952.153,2174.549
						c11.001-0.611,22.001-1.222,33.002-1.833c11.094,20.029,30.49,61.653,30.141,117.031c-0.323,51.247-17.391,88.38-22.721,99.272
						c-19.169,39.172-45.387,63.6-60.782,75.992c-0.022,60.901,1.131,99.304,3.224,122.29c0.253,2.771,2.411,26.027-0.735,56.019
						c-0.959,9.14-1.463,13.761-2.714,16.284c-17.35,35.014-116.817,7.266-143.684-4.345c-6.986-3.019-14.082-7.219-17.118-14.653
						c-3.9-9.552-0.161-18.211,1.357-25.783c3.729-18.593-7.324-32.628-29.489-68.699c-9.372-15.253-22.982-38.152-38.878-67.878
						c-18.399,5.368-61.76,14.986-104.208-5.263c-62.374-29.756-97.967-112.166-79.823-201.474
						c6.333-1.809,12.665-3.619,18.998-5.428c4.192,17.331,12.272,40.667,28.825,64.203c10.043,14.28,18.407,26.172,32.917,32.821
						c22.784,10.44,43.019-0.16,72.598-7.464c16.162-3.99,11.201-0.771,132.924-1.996c51.948-0.523,62.476-1.111,78.33-6.752
						c10.99-3.91,43.513-15.483,64.17-45.836C2984.985,2247.425,2954.384,2179.318,2952.153,2174.549z"/>
					
						<linearGradient id="SVGID_00000114049217985463276430000017844134704627358114_" gradientUnits="userSpaceOnUse" x1="2788.6382" y1="2340.3928" x2="2811.0283" y2="2406.4324">
						<stop  offset="0" style="stop-color:#FFC444"/>
						<stop  offset="0.9964" style="stop-color:#F36F56"/>
					</linearGradient>
					<path style="fill:url(#SVGID_00000114049217985463276430000017844134704627358114_);" d="M2794.643,2313.1
						c0,0-3.102,12.415,1.267,17.979c4.368,5.564,18.956,26.889,23.706,27.93c2.706,0.593,9.485,1.619,14.818,2.393
						c2.808,0.407,3.403,4.271,0.801,5.4c-5.304,2.302-14.658,4.618-30.72,4.445c-23.217-0.251-41.892-9.085-50.033-13.662
						c-1.156-0.65-0.609-2.404,0.714-2.304l10.448,0.785c8.948,0.673,16.304-6.954,15.308-15.872l-0.649-5.808L2794.643,2313.1z"/>
					<g>
						<g>
							
								<linearGradient id="SVGID_00000120524111286152776620000015909796118660813477_" gradientUnits="userSpaceOnUse" x1="2556.1663" y1="3161.3555" x2="2578.5562" y2="3227.3948" gradientTransform="matrix(1 0 0 1 514.5802 0)">
								<stop  offset="0" style="stop-color:#FFC444"/>
								<stop  offset="0.9964" style="stop-color:#F36F56"/>
							</linearGradient>
							<path style="fill:url(#SVGID_00000120524111286152776620000015909796118660813477_);" d="M2785.061,2338.092
								c-1.436-0.789-13.108-2.207-14.717-8.483c-2.185-8.52,5.473-18.89,6.427-20.559c3.994-6.986,4.998-7.93,6.855-9.113
								l2.577-1.511c0,0,0.149-0.056,0.305-0.108c1.645-0.544,7.21-0.588,8.331-0.322c3.582,0.85,7.083,15.6,5.521,36.305
								c0.132,0.793,0.257,1.593,0.378,2.399C2801.054,2338.797,2784.956,2338.83,2785.061,2338.092z"/>
							
								<linearGradient id="SVGID_00000099660343322763945600000016625500233437642629_" gradientUnits="userSpaceOnUse" x1="2826.7874" y1="2426.2292" x2="2806.1611" y2="2344.4124">
								<stop  offset="0" style="stop-color:#311944"/>
								<stop  offset="1" style="stop-color:#893976"/>
							</linearGradient>
							<path style="fill:url(#SVGID_00000099660343322763945600000016625500233437642629_);" d="M2774.083,2297.109
								c-0.506,2.531,6.194,7.57,9.059,9.746c0.348,0.265,1.355,1.157,2.268,2.594c0.133,0.21,0.249,0.453,0.349,0.767
								c1.315,4.079-5.227,8.697-4.026,10.537c0.871,1.336,5.285-0.323,5.779,0.823c0.465,1.079-3.219,3.209-2.691,4.502
								c0.398,0.975,2.655,0.141,4.032,1.655c0.686,0.751,0.466,1.332,1.161,3.602c0.393,1.283,0.951,2.691,1.39,3.477
								c2.135,3.821,8.389,5.34,9.634,3.859c0.347-0.413,0.065-0.772,0.44-2.175c0,0,0.349-1.302,1.293-2.792
								c1.349-2.133,4.523-3.607,7.741-5.817c5.961-4.09,7.637-7.654,8.143-8.86c0.057-0.135,0.107-0.26,0.151-0.374
								c0.086-0.204,0.16-0.409,0.223-0.615c1.26-4.109-3.959-11.248-3.959-11.248c-4.187-5.633-9.477-9.414-13.704-11.818
								c-7.731-1.521-14.027-1.329-18.387-0.847C2779.427,2294.518,2774.484,2295.105,2774.083,2297.109z"/>
							
								<linearGradient id="SVGID_00000125571931002615184370000016784721465282767785_" gradientUnits="userSpaceOnUse" x1="2825.0571" y1="2364.2666" x2="2796.1812" y2="2340.8909">
								<stop  offset="0" style="stop-color:#311944"/>
								<stop  offset="1" style="stop-color:#893976"/>
							</linearGradient>
							<path style="fill:url(#SVGID_00000125571931002615184370000016784721465282767785_);" d="M2771.674,2318.424
								c0,0,4.943,5.932,11.473-1.192l3.224,0.951c0,0-7.882,17.341-9.568,17.341c-1.686,0-6.608-1.122-6.608-1.122
								c-1.845-0.772-2.884-2.75-2.459-4.704C2768.508,2326.135,2770.533,2320.936,2771.674,2318.424z"/>
							
								<linearGradient id="SVGID_00000060743318743168412670000010143204072742000512_" gradientUnits="userSpaceOnUse" x1="3039.0137" y1="3561.1609" x2="3096.6848" y2="3654.1133" gradientTransform="matrix(1 0 0 1 514.5802 0)">
								<stop  offset="0" style="stop-color:#FFC444"/>
								<stop  offset="0.9964" style="stop-color:#F36F56"/>
							</linearGradient>
							<path style="fill:url(#SVGID_00000060743318743168412670000010143204072742000512_);" d="M2784.714,2319.296
								c1.623-2.128,4.343-0.033,4.296,2.766c-0.047,2.798-2.824,5.647-5.442,5.034
								C2780.949,2326.485,2782.531,2322.159,2784.714,2319.296z"/>
						</g>
					</g>
					
						<linearGradient id="SVGID_00000056417108588914718670000014641471533509725109_" gradientUnits="userSpaceOnUse" x1="2644.6379" y1="2188.6394" x2="2768.5752" y2="2643.6809">
						<stop  offset="0" style="stop-color:#FF9085"/>
						<stop  offset="1" style="stop-color:#FB6FBB"/>
					</linearGradient>
					<path style="opacity:0.3;fill:url(#SVGID_00000056417108588914718670000014641471533509725109_);" d="M2905.106,2649.426
						c-33.696,11.875-72.968-5.488-82.776-29.175c-7.25-17.511,8.241-34.215-2.714-52.244
						c-10.549-17.361-29.601-9.582-42.745-27.139c-14.325-19.134,2.533-36.083-10.177-61.743
						c-9.562-19.304-32.46-36.677-54.958-36.638c-26.741,0.045-36.729,24.663-59.707,19.676
						c-12.003-2.604-11.725-9.853-28.497-21.712c-29.108-20.581-48.627-11.96-72.598-26.461
						c-7.044-4.262-14.905-10.796-22.218-21.299c14.32,36.369,39.097,65.152,70.829,80.291
						c42.448,20.25,85.809,10.632,104.208,5.263c15.896,29.726,29.506,52.625,38.878,67.878
						c22.165,36.071,33.218,50.106,29.489,68.699c-1.518,7.572-5.257,16.231-1.357,25.783c3.036,7.434,10.132,11.634,17.118,14.653
						c26.867,11.611,126.335,39.359,143.684,4.345c1.251-2.523,1.755-7.144,2.714-16.284c0.598-5.693,1.002-11.141,1.266-16.254
						C2928.612,2635.955,2918.821,2644.593,2905.106,2649.426z"/>
				</g>
				<g>
					
						<linearGradient id="SVGID_00000047019201529622487240000007479136679289853865_" gradientUnits="userSpaceOnUse" x1="2672.4695" y1="2082.9238" x2="2801.9368" y2="3003.0718">
						<stop  offset="0" style="stop-color:#FFFFFF"/>
						<stop  offset="0.9964" style="stop-color:#EBEFF2"/>
					</linearGradient>
					<path style="opacity:0.19;fill:url(#SVGID_00000047019201529622487240000007479136679289853865_);" d="M2833.545,1977.55
						c-63.515-15.915-79.865-82.091-138.006-81.603c-57.504,0.483-69.924,65.458-121.205,62.403
						c-58.331-3.475-69.683-89.176-145.206-109.204c-26.031-6.903-51.373-3.795-73.107,2.669
						c42.403,198.889,140.011,337.137,140.011,337.137l461.917-94.997c-21.959-34.627-41.134-76.596-57.47-119.618
						C2872.822,1982.764,2850.823,1981.879,2833.545,1977.55z"/>
				</g>
				<path style="fill:#FFFFFF;" d="M2342.71,1785.695c-6.793,0-12.605-5.165-13.274-12.068c-0.711-7.341,4.665-13.865,12.006-14.576
					l477.617-46.197c7.341-0.716,13.864,4.665,14.574,12.004c0.711,7.341-4.665,13.865-12.006,14.576l-477.617,46.197
					C2343.574,1785.674,2343.14,1785.695,2342.71,1785.695z"/>
				<path style="fill:#FFFFFF;" d="M2522.792,1814.497c-6.722,0-12.504-5.061-13.258-11.896
					c-0.802-7.329,4.486-13.924,11.817-14.729l305.935-33.602c7.357-0.808,13.922,4.485,14.731,11.815
					c0.802,7.33-4.485,13.924-11.816,14.729l-305.935,33.602C2523.771,1814.469,2523.278,1814.497,2522.792,1814.497z"/>
			</g>
			
				<linearGradient id="SVGID_00000036245444719427900600000001032453357963665807_" gradientUnits="userSpaceOnUse" x1="2733.8364" y1="1132.2283" x2="2546.4702" y2="1593.1499">
				<stop  offset="0" style="stop-color:#FF9085"/>
				<stop  offset="1" style="stop-color:#FB6FBB"/>
			</linearGradient>
			<path style="fill:url(#SVGID_00000036245444719427900600000001032453357963665807_);" d="M2952.653,1648.574h-607.83
				c-40.001-86.827-71.033-263.015-62.834-459.434l613.377,28.965C2882.047,1401.247,2905.548,1572.857,2952.653,1648.574z"/>
			<g>
				<path style="fill:#FFFFFF;" d="M2862.999,1276.915c-0.518-7.23-6.369-12.926-13.611-13.25l-525.384-23.525
					c-8.133-0.364-14.926,6.131-14.926,14.272v3.051c0,7.674,6.063,13.977,13.73,14.276l525.384,20.474
					C2856.7,1292.544,2863.608,1285.407,2862.999,1276.915z"/>
				<path style="fill:#FFFFFF;" d="M2626.337,1309.672l-301.573-10.222c-8.575-0.291-15.686,6.582-15.686,15.163v1.779
					c0,8.214,6.537,14.936,14.747,15.165l301.573,8.444c8.797,0.247,15.958-7.02,15.583-15.813
					C2640.642,1316.266,2634.261,1309.94,2626.337,1309.672z"/>
				<g style="opacity:0.19;">
					
						<linearGradient id="SVGID_00000025407804647031739100000011878194097354244524_" gradientUnits="userSpaceOnUse" x1="2369.9702" y1="1493.6544" x2="2415.1335" y2="1493.6544">
						<stop  offset="0" style="stop-color:#FFFFFF"/>
						<stop  offset="0.9964" style="stop-color:#EBEFF2"/>
					</linearGradient>
					<polygon style="fill:url(#SVGID_00000025407804647031739100000011878194097354244524_);" points="2415.134,1575.559 
						2385.152,1575.493 2369.97,1411.75 2399.468,1412.206 					"/>
					
						<linearGradient id="SVGID_00000101065892335441953060000004635067195302824076_" gradientUnits="userSpaceOnUse" x1="2430.2625" y1="1534.5244" x2="2468.0752" y2="1534.5244">
						<stop  offset="0" style="stop-color:#FFFFFF"/>
						<stop  offset="0.9964" style="stop-color:#EBEFF2"/>
					</linearGradient>
					<polygon style="fill:url(#SVGID_00000101065892335441953060000004635067195302824076_);" points="2468.075,1575.676 
						2438.352,1575.61 2430.262,1493.373 2459.746,1493.635 					"/>
					
						<linearGradient id="SVGID_00000142153740176852803770000005467700122606957227_" gradientUnits="userSpaceOnUse" x1="2472.645" y1="1487.0302" x2="2520.5635" y2="1487.0302">
						<stop  offset="0" style="stop-color:#FFFFFF"/>
						<stop  offset="0.9964" style="stop-color:#EBEFF2"/>
					</linearGradient>
					<polygon style="fill:url(#SVGID_00000142153740176852803770000005467700122606957227_);" points="2520.563,1575.792 
						2491.094,1575.727 2472.645,1398.268 2501.604,1398.752 					"/>
					
						<linearGradient id="SVGID_00000026878621440120625700000017728894634055693729_" gradientUnits="userSpaceOnUse" x1="2526.8579" y1="1500.4137" x2="2572.6042" y2="1500.4137">
						<stop  offset="0" style="stop-color:#FFFFFF"/>
						<stop  offset="0.9964" style="stop-color:#EBEFF2"/>
					</linearGradient>
					<polygon style="fill:url(#SVGID_00000026878621440120625700000017728894634055693729_);" points="2572.604,1575.907 
						2543.386,1575.842 2526.858,1424.92 2555.648,1425.34 					"/>
					
						<linearGradient id="SVGID_00000142149898636782105710000004449761771889047231_" gradientUnits="userSpaceOnUse" x1="2590.5422" y1="1555.6017" x2="2624.2024" y2="1555.6017">
						<stop  offset="0" style="stop-color:#FFFFFF"/>
						<stop  offset="0.9964" style="stop-color:#EBEFF2"/>
					</linearGradient>
					<polygon style="fill:url(#SVGID_00000142149898636782105710000004449761771889047231_);" points="2624.202,1576.021 
						2595.232,1575.957 2590.542,1535.182 2619.398,1535.343 					"/>
					
						<linearGradient id="SVGID_00000064346665327966558380000000147646404836214694_" gradientUnits="userSpaceOnUse" x1="2635.208" y1="1528.6609" x2="2675.364" y2="1528.6609">
						<stop  offset="0" style="stop-color:#FFFFFF"/>
						<stop  offset="0.9964" style="stop-color:#EBEFF2"/>
					</linearGradient>
					<polygon style="fill:url(#SVGID_00000064346665327966558380000000147646404836214694_);" points="2675.364,1576.134 
						2646.639,1576.071 2635.208,1481.188 2663.671,1481.474 					"/>
					
						<linearGradient id="SVGID_00000030465573408152177540000016993071233241011133_" gradientUnits="userSpaceOnUse" x1="2680.5442" y1="1508.4249" x2="2726.0952" y2="1508.4249">
						<stop  offset="0" style="stop-color:#FFFFFF"/>
						<stop  offset="0.9964" style="stop-color:#EBEFF2"/>
					</linearGradient>
					<polygon style="fill:url(#SVGID_00000030465573408152177540000016993071233241011133_);" points="2726.095,1576.246 
						2697.612,1576.184 2680.544,1440.604 2708.659,1440.982 					"/>
					
						<linearGradient id="SVGID_00000170978483514349070720000014875029354959251888_" gradientUnits="userSpaceOnUse" x1="2735.1816" y1="1526.9019" x2="2776.4001" y2="1526.9019">
						<stop  offset="0" style="stop-color:#FFFFFF"/>
						<stop  offset="0.9964" style="stop-color:#EBEFF2"/>
					</linearGradient>
					<polygon style="fill:url(#SVGID_00000170978483514349070720000014875029354959251888_);" points="2776.4,1576.358 
						2748.156,1576.295 2735.182,1477.446 2763.161,1477.739 					"/>
					
						<linearGradient id="SVGID_00000080903428322923214280000017648747327839631283_" gradientUnits="userSpaceOnUse" x1="2777.5425" y1="1500.5262" x2="2826.2856" y2="1500.5262">
						<stop  offset="0" style="stop-color:#FFFFFF"/>
						<stop  offset="0.9964" style="stop-color:#EBEFF2"/>
					</linearGradient>
					<polygon style="fill:url(#SVGID_00000080903428322923214280000017648747327839631283_);" points="2826.286,1576.468 
						2798.277,1576.406 2777.542,1424.584 2805.149,1424.996 					"/>
					
						<linearGradient id="SVGID_00000174593204053422912560000009207939107026126990_" gradientUnits="userSpaceOnUse" x1="2824.1836" y1="1492.6653" x2="2875.7561" y2="1492.6653">
						<stop  offset="0" style="stop-color:#FFFFFF"/>
						<stop  offset="0.9964" style="stop-color:#EBEFF2"/>
					</linearGradient>
					<polygon style="fill:url(#SVGID_00000174593204053422912560000009207939107026126990_);" points="2875.756,1576.577 
						2847.98,1576.516 2824.184,1408.753 2851.521,1409.199 					"/>
				</g>
				<polygon style="fill:#FFFFFF;" points="2879.547,1602.76 2387.681,1602.76 2386.026,1584.913 2877.066,1585.624 				"/>
			</g>
			<g>
				<path style="fill:#A2A7AE;" d="M1605.639,3107.328c-2.888,0-5.23-2.342-5.23-5.23V2005.913c0-2.888,2.342-5.23,5.23-5.23
					c2.888,0,5.23,2.342,5.23,5.23v1096.185C1610.869,3104.986,1608.527,3107.328,1605.639,3107.328z"/>
				<path style="fill:#A2A7AE;" d="M2084.531,3084.792c-2.888,0-5.229-2.342-5.229-5.23V2005.913c0-2.888,2.34-5.23,5.229-5.23
					s5.229,2.342,5.229,5.23v1073.648C2089.759,3082.449,2087.419,3084.792,2084.531,3084.792z"/>
				<path style="fill:#FAFBFC;" d="M2036.172,3235.813c-2.37,0-4.515-1.62-5.085-4.026l-287.573-1214.833
					c-0.667-2.81,1.074-5.628,3.884-6.293c2.81-0.668,5.63,1.072,6.293,3.884l287.573,1214.833c0.665,2.81-1.072,5.628-3.882,6.293
					C2036.974,3235.768,2036.57,3235.813,2036.172,3235.813z"/>
				<path style="fill:#FAFBFC;" d="M2481.061,3176.101c-2.334,0-4.459-1.573-5.066-3.938l-294.653-1155.121
					c-0.714-2.798,0.978-5.646,3.775-6.36c2.797-0.719,5.646,0.976,6.363,3.775l294.653,1155.121
					c0.714,2.799-0.978,5.646-3.775,6.36C2481.922,3176.049,2481.488,3176.101,2481.061,3176.101z"/>
				<polygon style="fill:#D8DEE8;" points="2203.314,2016.735 1744.628,2026.571 1597.658,2016.735 1597.658,1995.092 
					1939.431,1988.16 2203.314,1995.092 				"/>
				
					<linearGradient id="SVGID_00000121992912506242060040000005626256729956872064_" gradientUnits="userSpaceOnUse" x1="-79.6078" y1="2010.2622" x2="-516.4365" y2="2011.7383" gradientTransform="matrix(1 0 0 1 2222 0)">
					<stop  offset="0.494" style="stop-color:#EBEFF2"/>
					<stop  offset="1" style="stop-color:#FFFFFF"/>
				</linearGradient>
				<polygon style="fill:url(#SVGID_00000121992912506242060040000005626256729956872064_);" points="2203.314,2016.735 
					1744.628,2026.571 1744.628,2004.928 2203.314,1995.092 				"/>
				<path style="fill:#FAFBFC;" d="M1810.698,2283.313c-2.755,0-5.062-2.155-5.217-4.94c-0.16-2.883,2.047-5.351,4.932-5.512
					l432.112-24.065c2.843-0.142,5.349,2.047,5.512,4.932c0.16,2.883-2.047,5.351-4.932,5.512l-432.112,24.065
					C1810.895,2283.309,1810.795,2283.313,1810.698,2283.313z"/>
				<path style="fill:#FAFBFC;" d="M1867.864,2524.812c-2.729,0-5.027-2.119-5.212-4.882c-0.191-2.883,1.989-5.375,4.87-5.568
					l439.435-29.31c2.924-0.145,5.375,1.989,5.568,4.87c0.192,2.883-1.989,5.375-4.87,5.568l-439.435,29.31
					C1868.099,2524.807,1867.981,2524.812,1867.864,2524.812z"/>
				<path style="fill:#FAFBFC;" d="M1924.701,2764.927c-2.706,0-5-2.088-5.209-4.833c-0.218-2.88,1.94-5.393,4.818-5.612
					l442.617-33.709c2.917-0.25,5.395,1.936,5.613,4.816c0.219,2.88-1.94,5.393-4.818,5.612l-442.617,33.709
					C1924.969,2764.923,1924.835,2764.927,1924.701,2764.927z"/>
				<path style="fill:#FAFBFC;" d="M1981.219,3003.671c-2.679,0-4.961-2.047-5.203-4.766c-0.258-2.877,1.868-5.418,4.743-5.674
					l445.326-39.71c2.862-0.254,5.418,1.868,5.672,4.745c0.258,2.877-1.868,5.418-4.743,5.674l-445.326,39.71
					C1981.532,3003.664,1981.375,3003.671,1981.219,3003.671z"/>
			</g>
			<g>
				
					<linearGradient id="SVGID_00000132049031553581256840000005433507362726255544_" gradientUnits="userSpaceOnUse" x1="1657.2026" y1="1307.4962" x2="1956.0024" y2="2020.297">
					<stop  offset="0" style="stop-color:#444B8C"/>
					<stop  offset="0.9964" style="stop-color:#26264F"/>
				</linearGradient>
				<path style="opacity:0.3;fill:url(#SVGID_00000132049031553581256840000005433507362726255544_);" d="M1410.798,1271.437
					v338.147c0,50.511,6.723,100.797,19.994,149.533l5.075,18.637c1.884,6.921,8.169,11.723,15.341,11.723h644.426
					c8.746,0,15.23-8.107,13.316-16.641c-7.727-34.455-24.419-114.241-24.419-160.479l-37.016-292.67
					c0-14.28,25.667-44.737,11.393-45.166l-631.732-18.978C1418.212,1255.275,1410.798,1262.468,1410.798,1271.437z"/>
				
					<linearGradient id="SVGID_00000063591344695355643010000002269895459544164752_" gradientUnits="userSpaceOnUse" x1="1663.0303" y1="1239.1409" x2="1961.8301" y2="1951.9418">
					<stop  offset="0" style="stop-color:#AA80F9"/>
					<stop  offset="0.9964" style="stop-color:#6165D7"/>
				</linearGradient>
				<path style="fill:url(#SVGID_00000063591344695355643010000002269895459544164752_);" d="M1410.798,1205.525v338.147
					c0,50.511,6.723,100.797,19.994,149.533l5.075,18.637c1.884,6.921,8.169,11.723,15.341,11.723h644.426
					c8.746,0,15.23-8.107,13.316-16.641c-7.727-34.455-24.419-114.241-24.419-160.479v-311.433c0-14.28-11.349-25.975-25.623-26.404
					l-631.732-18.977C1418.212,1189.362,1410.798,1196.556,1410.798,1205.525z"/>
				<path style="fill:#FFFFFF;" d="M2025.118,1316.349c-0.082,0-0.164-0.001-0.246-0.004l-553.621-13.915
					c-5.301-0.132-9.489-4.538-9.355-9.838c0.134-5.3,4.575-9.523,9.838-9.355l553.621,13.915c5.301,0.132,9.489,4.538,9.356,9.838
					C2034.58,1312.209,2030.308,1316.349,2025.118,1316.349z"/>
				<g style="opacity:0.19;">
					
						<linearGradient id="SVGID_00000152240981886066575540000005021400145990030508_" gradientUnits="userSpaceOnUse" x1="1640.871" y1="1379.4934" x2="1709.5457" y2="1379.4934">
						<stop  offset="0" style="stop-color:#FFFFFF"/>
						<stop  offset="0.9964" style="stop-color:#EBEFF2"/>
					</linearGradient>
					<polygon style="fill:url(#SVGID_00000152240981886066575540000005021400145990030508_);" points="1709.546,1404.319 
						1640.871,1402.314 1640.871,1354.667 1709.546,1357.119 					"/>
					
						<linearGradient id="SVGID_00000101824568540188900790000005793420630697901212_" gradientUnits="userSpaceOnUse" x1="1725.7075" y1="1382.223" x2="1792.8083" y2="1382.223">
						<stop  offset="0" style="stop-color:#FFFFFF"/>
						<stop  offset="0.9964" style="stop-color:#EBEFF2"/>
					</linearGradient>
					<polygon style="fill:url(#SVGID_00000101824568540188900790000005793420630697901212_);" points="1792.808,1406.75 
						1725.708,1404.791 1725.708,1357.696 1792.808,1360.091 					"/>
					
						<linearGradient id="SVGID_00000081626563605542523690000015866792938402381720_" gradientUnits="userSpaceOnUse" x1="1808.6017" y1="1384.8904" x2="1874.1816" y2="1384.8904">
						<stop  offset="0" style="stop-color:#FFFFFF"/>
						<stop  offset="0.9964" style="stop-color:#EBEFF2"/>
					</linearGradient>
					<polygon style="fill:url(#SVGID_00000081626563605542523690000015866792938402381720_);" points="1874.182,1409.126 
						1808.602,1407.211 1808.602,1360.655 1874.182,1362.996 					"/>
					
						<linearGradient id="SVGID_00000125584806078466912960000007387361525972468876_" gradientUnits="userSpaceOnUse" x1="1889.6195" y1="1387.4976" x2="1953.7301" y2="1387.4976">
						<stop  offset="0" style="stop-color:#FFFFFF"/>
						<stop  offset="0.9964" style="stop-color:#EBEFF2"/>
					</linearGradient>
					<polygon style="fill:url(#SVGID_00000125584806078466912960000007387361525972468876_);" points="1953.73,1411.448 
						1889.62,1409.576 1889.62,1363.547 1953.73,1365.836 					"/>
					
						<linearGradient id="SVGID_00000051354288184925021940000014034180863870183592_" gradientUnits="userSpaceOnUse" x1="1968.8239" y1="1390.0468" x2="2031.5142" y2="1390.0468">
						<stop  offset="0" style="stop-color:#FFFFFF"/>
						<stop  offset="0.9964" style="stop-color:#EBEFF2"/>
					</linearGradient>
					<polygon style="fill:url(#SVGID_00000051354288184925021940000014034180863870183592_);" points="2031.514,1413.719 
						1968.824,1411.888 1968.824,1366.375 2031.514,1368.613 					"/>
					
						<linearGradient id="SVGID_00000126313346616170629100000011134503422235261884_" gradientUnits="userSpaceOnUse" x1="1465.0918" y1="1446.4928" x2="1537.0851" y2="1446.4928">
						<stop  offset="0" style="stop-color:#FFFFFF"/>
						<stop  offset="0.9964" style="stop-color:#EBEFF2"/>
					</linearGradient>
					<polygon style="fill:url(#SVGID_00000126313346616170629100000011134503422235261884_);" points="1537.085,1471.588 
						1465.092,1470.187 1465.092,1421.397 1537.085,1423.267 					"/>
					
						<linearGradient id="SVGID_00000050652095115971001530000016028164430685821869_" gradientUnits="userSpaceOnUse" x1="1554.0234" y1="1448.4966" x2="1624.3279" y2="1448.4966">
						<stop  offset="0" style="stop-color:#FFFFFF"/>
						<stop  offset="0.9964" style="stop-color:#EBEFF2"/>
					</linearGradient>
					<polygon style="fill:url(#SVGID_00000050652095115971001530000016028164430685821869_);" points="1624.328,1473.286 
						1554.023,1471.918 1554.023,1423.707 1624.328,1425.532 					"/>
					
						<linearGradient id="SVGID_00000151521374372613719460000017559128642399243905_" gradientUnits="userSpaceOnUse" x1="1640.871" y1="1450.4531" x2="1709.5457" y2="1450.4531">
						<stop  offset="0" style="stop-color:#FFFFFF"/>
						<stop  offset="0.9964" style="stop-color:#EBEFF2"/>
					</linearGradient>
					<polygon style="fill:url(#SVGID_00000151521374372613719460000017559128642399243905_);" points="1709.546,1474.945 
						1640.871,1473.608 1640.871,1425.961 1709.546,1427.745 					"/>
					
						<linearGradient id="SVGID_00000114067813898483513540000009136979026601160881_" gradientUnits="userSpaceOnUse" x1="1725.7075" y1="1452.365" x2="1792.8083" y2="1452.365">
						<stop  offset="0" style="stop-color:#FFFFFF"/>
						<stop  offset="0.9964" style="stop-color:#EBEFF2"/>
					</linearGradient>
					<polygon style="fill:url(#SVGID_00000114067813898483513540000009136979026601160881_);" points="1792.808,1476.565 
						1725.708,1475.259 1725.708,1428.165 1792.808,1429.907 					"/>
					
						<linearGradient id="SVGID_00000015328984894011714240000001538075332321612982_" gradientUnits="userSpaceOnUse" x1="1808.6017" y1="1454.2332" x2="1874.1816" y2="1454.2332">
						<stop  offset="0" style="stop-color:#FFFFFF"/>
						<stop  offset="0.9964" style="stop-color:#EBEFF2"/>
					</linearGradient>
					<polygon style="fill:url(#SVGID_00000015328984894011714240000001538075332321612982_);" points="1874.182,1478.149 
						1808.602,1476.873 1808.602,1430.317 1874.182,1432.02 					"/>
					
						<linearGradient id="SVGID_00000125572857991512363040000001360624948073041546_" gradientUnits="userSpaceOnUse" x1="1889.6195" y1="1456.0592" x2="1953.7301" y2="1456.0592">
						<stop  offset="0" style="stop-color:#FFFFFF"/>
						<stop  offset="0.9964" style="stop-color:#EBEFF2"/>
					</linearGradient>
					<polygon style="fill:url(#SVGID_00000125572857991512363040000001360624948073041546_);" points="1953.73,1479.698 
						1889.62,1478.449 1889.62,1432.421 1953.73,1434.085 					"/>
					
						<linearGradient id="SVGID_00000012456155681427122320000004584495941089567639_" gradientUnits="userSpaceOnUse" x1="1968.8239" y1="1457.8444" x2="2031.5142" y2="1457.8444">
						<stop  offset="0" style="stop-color:#FFFFFF"/>
						<stop  offset="0.9964" style="stop-color:#EBEFF2"/>
					</linearGradient>
					<polygon style="fill:url(#SVGID_00000012456155681427122320000004584495941089567639_);" points="2031.514,1481.211 
						1968.824,1479.991 1968.824,1434.477 2031.514,1436.105 					"/>
					
						<linearGradient id="SVGID_00000163066074627971073300000009282722243173670307_" gradientUnits="userSpaceOnUse" x1="1465.0918" y1="1519.1472" x2="1537.0851" y2="1519.1472">
						<stop  offset="0" style="stop-color:#FFFFFF"/>
						<stop  offset="0.9964" style="stop-color:#EBEFF2"/>
					</linearGradient>
					<polygon style="fill:url(#SVGID_00000163066074627971073300000009282722243173670307_);" points="1537.085,1543.892 
						1465.092,1543.192 1465.092,1494.402 1537.085,1495.571 					"/>
					
						<linearGradient id="SVGID_00000112602588474598657370000017597780050581910456_" gradientUnits="userSpaceOnUse" x1="1554.0234" y1="1520.2935" x2="1624.3279" y2="1520.2935">
						<stop  offset="0" style="stop-color:#FFFFFF"/>
						<stop  offset="0.9964" style="stop-color:#EBEFF2"/>
					</linearGradient>
					<polygon style="fill:url(#SVGID_00000112602588474598657370000017597780050581910456_);" points="1624.328,1544.741 
						1554.023,1544.057 1554.023,1495.846 1624.328,1496.987 					"/>
					
						<linearGradient id="SVGID_00000066499934562900491340000013809340089142977462_" gradientUnits="userSpaceOnUse" x1="1640.871" y1="1521.4131" x2="1709.5457" y2="1521.4131">
						<stop  offset="0" style="stop-color:#FFFFFF"/>
						<stop  offset="0.9964" style="stop-color:#EBEFF2"/>
					</linearGradient>
					<polygon style="fill:url(#SVGID_00000066499934562900491340000013809340089142977462_);" points="1709.546,1545.571 
						1640.871,1544.902 1640.871,1497.256 1709.546,1498.371 					"/>
					
						<linearGradient id="SVGID_00000031178162295481821110000011390720115214684852_" gradientUnits="userSpaceOnUse" x1="1725.7075" y1="1522.5067" x2="1792.8083" y2="1522.5067">
						<stop  offset="0" style="stop-color:#FFFFFF"/>
						<stop  offset="0.9964" style="stop-color:#EBEFF2"/>
					</linearGradient>
					<polygon style="fill:url(#SVGID_00000031178162295481821110000011390720115214684852_);" points="1792.808,1546.381 
						1725.708,1545.728 1725.708,1498.633 1792.808,1499.722 					"/>
					
						<linearGradient id="SVGID_00000038377342580549746790000007768771178285054606_" gradientUnits="userSpaceOnUse" x1="1808.6017" y1="1523.5758" x2="1874.1816" y2="1523.5758">
						<stop  offset="0" style="stop-color:#FFFFFF"/>
						<stop  offset="0.9964" style="stop-color:#EBEFF2"/>
					</linearGradient>
					<polygon style="fill:url(#SVGID_00000038377342580549746790000007768771178285054606_);" points="1874.182,1547.173 
						1808.602,1546.535 1808.602,1499.979 1874.182,1501.043 					"/>
					
						<linearGradient id="SVGID_00000094605364269227318690000017435015509822408635_" gradientUnits="userSpaceOnUse" x1="1889.6195" y1="1524.6204" x2="1953.7301" y2="1524.6204">
						<stop  offset="0" style="stop-color:#FFFFFF"/>
						<stop  offset="0.9964" style="stop-color:#EBEFF2"/>
					</linearGradient>
					<polygon style="fill:url(#SVGID_00000094605364269227318690000017435015509822408635_);" points="1953.73,1547.947 
						1889.62,1547.323 1889.62,1501.294 1953.73,1502.335 					"/>
					
						<linearGradient id="SVGID_00000103978728710301868660000005445564768746237882_" gradientUnits="userSpaceOnUse" x1="1968.8239" y1="1525.6416" x2="2031.5142" y2="1525.6416">
						<stop  offset="0" style="stop-color:#FFFFFF"/>
						<stop  offset="0.9964" style="stop-color:#EBEFF2"/>
					</linearGradient>
					<polygon style="fill:url(#SVGID_00000103978728710301868660000005445564768746237882_);" points="2031.514,1548.703 
						1968.824,1548.094 1968.824,1502.58 2031.514,1503.598 					"/>
					
						<linearGradient id="SVGID_00000030444978491949415260000007364510280068941206_" gradientUnits="userSpaceOnUse" x1="1465.0918" y1="1591.8011" x2="1537.0851" y2="1591.8011">
						<stop  offset="0" style="stop-color:#FFFFFF"/>
						<stop  offset="0.9964" style="stop-color:#EBEFF2"/>
					</linearGradient>
					<polygon style="fill:url(#SVGID_00000030444978491949415260000007364510280068941206_);" points="1537.085,1616.196 
						1465.092,1616.196 1465.092,1567.406 1537.085,1567.875 					"/>
					
						<linearGradient id="SVGID_00000048496837066737253800000014318892190650886299_" gradientUnits="userSpaceOnUse" x1="1554.0234" y1="1592.0906" x2="1624.3279" y2="1592.0906">
						<stop  offset="0" style="stop-color:#FFFFFF"/>
						<stop  offset="0.9964" style="stop-color:#EBEFF2"/>
					</linearGradient>
					<polygon style="fill:url(#SVGID_00000048496837066737253800000014318892190650886299_);" points="1624.328,1616.196 
						1554.023,1616.196 1554.023,1567.985 1624.328,1568.442 					"/>
					
						<linearGradient id="SVGID_00000148651322262040009560000003699999733953627311_" gradientUnits="userSpaceOnUse" x1="1640.871" y1="1592.3728" x2="1709.5457" y2="1592.3728">
						<stop  offset="0" style="stop-color:#FFFFFF"/>
						<stop  offset="0.9964" style="stop-color:#EBEFF2"/>
					</linearGradient>
					<polygon style="fill:url(#SVGID_00000148651322262040009560000003699999733953627311_);" points="1709.546,1616.196 
						1640.871,1616.196 1640.871,1568.55 1709.546,1568.996 					"/>
					
						<linearGradient id="SVGID_00000094614604262139008440000001003182380887257783_" gradientUnits="userSpaceOnUse" x1="1725.7075" y1="1592.6488" x2="1792.8083" y2="1592.6488">
						<stop  offset="0" style="stop-color:#FFFFFF"/>
						<stop  offset="0.9964" style="stop-color:#EBEFF2"/>
					</linearGradient>
					<polygon style="fill:url(#SVGID_00000094614604262139008440000001003182380887257783_);" points="1792.808,1616.196 
						1725.708,1616.196 1725.708,1569.101 1792.808,1569.538 					"/>
					
						<linearGradient id="SVGID_00000096774894578285844940000002529642832391848637_" gradientUnits="userSpaceOnUse" x1="1808.6017" y1="1592.9182" x2="1874.1816" y2="1592.9182">
						<stop  offset="0" style="stop-color:#FFFFFF"/>
						<stop  offset="0.9964" style="stop-color:#EBEFF2"/>
					</linearGradient>
					<polygon style="fill:url(#SVGID_00000096774894578285844940000002529642832391848637_);" points="1874.182,1616.196 
						1808.602,1616.196 1808.602,1569.64 1874.182,1570.067 					"/>
				</g>
			</g>
			<g>
				
					<linearGradient id="SVGID_00000115500913366146972390000009105719156676159666_" gradientUnits="userSpaceOnUse" x1="1778.3492" y1="1347.9501" x2="1797.4608" y2="1347.9501">
					<stop  offset="0.0036" style="stop-color:#F36F56"/>
					<stop  offset="1" style="stop-color:#FFC444"/>
				</linearGradient>
				<path style="fill:url(#SVGID_00000115500913366146972390000009105719156676159666_);" d="M1792.505,1376.151
					c0,0-7.848-3.914-12-10.28c-4.153-6.367-1.99-15.87,3.8-22.721c5.79-6.851,8.504-23.401,8.504-23.401s6.897,15.001,3.896,21.001
					c-3,6-8.8,18.204-8.8,18.204l9.556,10.464L1792.505,1376.151z"/>
				<path style="fill:#FFFFFF;" d="M1792.808,1360.655l-8.504,12.496c0,0,21.349,62.982,89.877,84.693
					c68.529,21.711,94.642-34.138,94.642-34.138S1869.314,1417.762,1792.808,1360.655z"/>
				
					<linearGradient id="SVGID_00000067955700903852151320000012462584929403162285_" gradientUnits="userSpaceOnUse" x1="1784.3044" y1="1418.0039" x2="1968.8239" y2="1418.0039">
					<stop  offset="0.0036" style="stop-color:#F36F56"/>
					<stop  offset="1" style="stop-color:#FFC444"/>
				</linearGradient>
				<path style="opacity:0.3;fill:url(#SVGID_00000067955700903852151320000012462584929403162285_);" d="M1799.713,1375.47
					c-6.272-1.849-11.75-2.261-15.408-2.319c0,0,21.349,62.982,89.877,84.693c68.529,21.711,94.642-34.138,94.642-34.138
					c-13.562-4.386-34.074-9.568-59.318-10.11c-36.242-0.779-45.332,8.799-62.399-0.243
					C1827.663,1403.051,1824.864,1382.886,1799.713,1375.47z"/>
				
					<linearGradient id="SVGID_00000070805912211053606360000011009503923381874618_" gradientUnits="userSpaceOnUse" x1="1656.9626" y1="1323.9841" x2="1847.6432" y2="1323.9841">
					<stop  offset="0" style="stop-color:#FF9085"/>
					<stop  offset="1" style="stop-color:#FB6FBB"/>
				</linearGradient>
				<path style="fill:url(#SVGID_00000070805912211053606360000011009503923381874618_);" d="M1658.056,1295.371l48.511,128.208
					c5.003,13.223,23.08,14.79,30.284,2.625l108.436-183.104c4.627-7.812,2.238-17.885-5.404-22.788l-6.467-4.149
					c-8.01-5.139-18.684-2.636-23.574,5.529l-81.122,135.441c-2.359,3.939-8.208,3.474-9.915-0.789l-29.32-73.212
					c-3.912-9.767-15.714-13.607-24.624-8.012h0C1658.061,1279.391,1655.215,1287.862,1658.056,1295.371z"/>
				
					<linearGradient id="SVGID_00000051353700183511636260000009680059495215728822_" gradientUnits="userSpaceOnUse" x1="1315.6348" y1="1774.549" x2="1246.1218" y2="1661.3103" gradientTransform="matrix(0.9867 -0.1625 0.1625 0.9867 178.4144 -79.8782)">
					<stop  offset="0.0036" style="stop-color:#F36F56"/>
					<stop  offset="1" style="stop-color:#FFC444"/>
				</linearGradient>
				<path style="fill:url(#SVGID_00000051353700183511636260000009680059495215728822_);" d="M1720.662,1394.874
					c0,0-6.501,1.761-9.584-10.775c-2.416-9.827-4.869-12.432-6.344-9.879c-1.475,2.553,0.482,7.993,0.482,7.993
					s-10.786-3.375-17.812-10.828c-7.026-7.452-5.946,0.885-4.76,5.603c1.186,4.718,12.388,16.164,16.504,17.434
					c4.115,1.27,13.343,10.665,13.343,10.665L1720.662,1394.874z"/>
				
					<linearGradient id="SVGID_00000016040686096947174420000014892848122517887387_" gradientUnits="userSpaceOnUse" x1="4931.6206" y1="1982.2131" x2="4898.083" y2="1871.6298" gradientTransform="matrix(-0.9999 0.0138 0.0138 0.9999 6904.6699 -14.86)">
					<stop  offset="0" style="stop-color:#444B8C"/>
					<stop  offset="0.9964" style="stop-color:#26264F"/>
				</linearGradient>
				<path style="fill:url(#SVGID_00000016040686096947174420000014892848122517887387_);" d="M2032.837,1981.171
					c3.432,7.001,2.469,10.01,1.615,11.333c-2.505,3.883-8.536,0.216-24.279,2.081c-1.847,0.219-5.37,0.695-9.768-0.341
					c-3.767-0.888-8.208-2.893-8.019-3.902c0.069-0.368,0.739-0.514,0.992-0.569c4.369-0.931,31.719-9.325,31.719-9.325
					L2032.837,1981.171z"/>
				
					<linearGradient id="SVGID_00000062876960216557296150000007635568517461332402_" gradientUnits="userSpaceOnUse" x1="4902.7095" y1="1960.6791" x2="4902.7095" y2="1783.0228" gradientTransform="matrix(-0.9999 0.0138 0.0138 0.9999 6904.6699 -14.86)">
					<stop  offset="0" style="stop-color:#FFC444"/>
					<stop  offset="0.9964" style="stop-color:#F36F56"/>
				</linearGradient>
				<path style="fill:url(#SVGID_00000062876960216557296150000007635568517461332402_);" d="M2034.937,1965.781l-2.442,15.651
					c0,0-6.722,4.752-8.489-1.017c-1.271-4.15-1.235-15.333-1.235-15.333L2034.937,1965.781z"/>
				
					<linearGradient id="SVGID_00000162333770388129883540000003016947978583438214_" gradientUnits="userSpaceOnUse" x1="4965.2983" y1="1954.0455" x2="4965.2983" y2="1776.3821" gradientTransform="matrix(-0.9999 0.0138 0.0138 0.9999 6904.6699 -14.86)">
					<stop  offset="0" style="stop-color:#FFC444"/>
					<stop  offset="0.9964" style="stop-color:#F36F56"/>
				</linearGradient>
				<polygon style="fill:url(#SVGID_00000162333770388129883540000003016947978583438214_);" points="1958.292,1966.855 
					1964.891,1984.875 1974.482,1983.347 1972.258,1966.661 				"/>
				
					<linearGradient id="SVGID_00000054251637829980877630000006423605963949659824_" gradientUnits="userSpaceOnUse" x1="4977.6504" y1="1960.7615" x2="4944.1128" y2="1850.1779" gradientTransform="matrix(-0.9999 0.0138 0.0138 0.9999 6904.6699 -14.86)">
					<stop  offset="0" style="stop-color:#444B8C"/>
					<stop  offset="0.9964" style="stop-color:#26264F"/>
				</linearGradient>
				<path style="fill:url(#SVGID_00000054251637829980877630000006423605963949659824_);" d="M1967.878,1994.8
					c4.642-5.508,8.787-5.009,9.624-8.794c0.657-2.974-1.165-6.622-3.912-8.008c-3.863-1.947-8.541,1.094-9.598,1.78
					c-7.18,4.668-5.225,11.967-11.994,15.132c-1.363,0.637-3.521,1.313-5.798,3.445c-0.966,0.906-3.36,3.149-2.8,4.694
					c0.649,1.786,4.917,1.725,8.975,1.666c4.87-0.07,7.305-0.104,9.646-1.566C1965.267,2001.124,1964.295,1999.051,1967.878,1994.8z
					"/>
				
					<linearGradient id="SVGID_00000013888336213241840500000004770629767749636756_" gradientUnits="userSpaceOnUse" x1="4887.3604" y1="1577.3274" x2="4871.0449" y2="1944.4281" gradientTransform="matrix(-0.9999 0.0138 0.0138 0.9999 6904.6699 -14.86)">
					<stop  offset="0.0036" style="stop-color:#F36F56"/>
					<stop  offset="1" style="stop-color:#FFC444"/>
				</linearGradient>
				<path style="fill:url(#SVGID_00000013888336213241840500000004770629767749636756_);" d="M2086.252,1591.427
					c-1.774,36.403-6.985,67.479-12.915,92.811c-6.378,27.252-9.854,31.91-12.066,50.801c-4.813,41.109,8.336,47.291,9.775,93.903
					c1.589,51.471-12.959,92.039-18.667,107.511c-4.99,13.526-10.145,24.424-14.007,31.988c-4.802,4.009-11.975,2.276-19.541,0.568
					c-1.801-46.693-4.348-90.653-6.149-137.345c-7.523-70.346-15.046-140.689-22.57-211.033
					C2022.16,1610.896,2054.206,1601.163,2086.252,1591.427z"/>
				
					<linearGradient id="SVGID_00000079465825404703221130000005551343637968424839_" gradientUnits="userSpaceOnUse" x1="4887.3604" y1="1577.3274" x2="4871.0449" y2="1944.4279" gradientTransform="matrix(-0.9999 0.0138 0.0138 0.9999 6904.6699 -14.86)">
					<stop  offset="0.0036" style="stop-color:#F36F56"/>
					<stop  offset="1" style="stop-color:#FFC444"/>
				</linearGradient>
				<path style="opacity:0.3;fill:url(#SVGID_00000079465825404703221130000005551343637968424839_);" d="M2018.831,1969.01
					c-1.801-46.693-4.348-90.653-6.149-137.345c-7.523-70.346-15.046-140.689-22.57-211.033
					c32.047-9.736,64.093-19.469,96.139-29.204c-0.117,2.411-0.288,4.734-0.434,7.1c-45.479,37.814-54.876,68.341-54.889,89.301
					c-0.016,25.421,13.608,38.315,10.103,75.098c-2.505,26.301-10.524,30.772-11.031,54.542
					c-0.652,30.609,12.116,48.101,18.135,65.926c5.817,17.227,7.498,41.488-5.187,75.67c-1.645,3.523-3.196,6.673-4.577,9.377
					C2033.57,1972.449,2026.397,1970.719,2018.831,1969.01z"/>
				
					<linearGradient id="SVGID_00000008858866571148780520000007931781212211683725_" gradientUnits="userSpaceOnUse" x1="5182.8325" y1="1729.1165" x2="4823.228" y2="1712.7705" gradientTransform="matrix(-0.9999 0.0138 0.0138 0.9999 6904.6699 -14.86)">
					<stop  offset="0.0036" style="stop-color:#F36F56"/>
					<stop  offset="1" style="stop-color:#FFC444"/>
				</linearGradient>
				<path style="fill:url(#SVGID_00000008858866571148780520000007931781212211683725_);" d="M2031.891,1618.631
					c-28.838,35.314-45.287,68.329-54.777,91.459c-11.419,27.828-19.697,48.683-17.102,75.695
					c2.856,29.729,16.337,40.412,25.291,65.757c8.683,24.58,12.914,62.402-9.74,118.682c-5.701,1.974-11.402,3.948-17.102,5.92
					c-3.788-15.209-9.915-37.958-19.076-65.051c-18.154-53.688-36.25-89.018-41.143-99.993
					c-17.234-38.646-18.976-107.639,52.757-240.756C1977.962,1586.438,2004.926,1602.534,2031.891,1618.631z"/>
				<path style="fill:#FFFFFF;" d="M1705.649,1404.983c4.896-7.864,9.794-15.728,14.692-23.592
					c30.751,48.593,58.793,60.854,79.014,62.83c36.989,3.614,87.541-27.692,150.088-65.38c8.752-5.274,26.042-15.909,46.098-12.204
					c4.806,0.889,20.348,4.554,38.654,27.722c34.275,43.377,13.579,73.283,42.194,104.406c20.635,22.442,33.83,9.535,63.769,38.978
					c22.116,21.751,21.035,34.811,40.766,43.797c24.094,10.972,40.719-1.669,54.167,11.531
					c10.847,10.646,13.343,31.933,4.712,42.403c-10.697,12.976-31.572,0.95-65.621,1.718
					c-57.428,1.296-65.862,37.037-133.131,43.814c-22.477,2.264-50.105,4.626-69.05-12.354
					c-9.455-8.474-13.053-18.371-21.947-60.303c-17.619-83.066-17.811-88.847-25.59-95.449
					c-26.255-22.28-64.276,13.079-113.46,2.917C1782.245,1509.876,1742.925,1486.976,1705.649,1404.983z"/>
				
					<linearGradient id="SVGID_00000081609587941394031220000003200520463450752672_" gradientUnits="userSpaceOnUse" x1="-1298.207" y1="2146.6748" x2="-1233.4614" y2="2483.8921" gradientTransform="matrix(0.9199 -0.3921 0.3921 0.9199 2202.9524 -1027.0323)">
					<stop  offset="0.0036" style="stop-color:#F36F56"/>
					<stop  offset="1" style="stop-color:#FFC444"/>
				</linearGradient>
				<path style="opacity:0.3;fill:url(#SVGID_00000081609587941394031220000003200520463450752672_);" d="M2071.119,1656.092
					c-13.886-12.037-9.898-30.284-28.607-43.892c-23.843-17.342-45.521,1.237-62.276-11.944
					c-28.656-22.542,17.301-90.605-15.55-131.936c-15.685-19.733-44.075-26.754-64.642-25.232
					c-45.66,3.38-56.943,49.188-98.936,54.269c-9.953,1.204-22.389,0.21-37.383-6.463c17.26,15.298,33.484,22.071,47.277,24.921
					c49.184,10.162,87.205-25.198,113.459-2.917c7.78,6.603,7.971,12.383,25.591,95.449c8.894,41.933,12.492,51.83,21.947,60.302
					c20.094,18.009,49.884,14.57,69.05,12.356c5.68-0.656,32.91-4.146,59.258-16.163
					C2086.369,1665.08,2077.245,1661.402,2071.119,1656.092z"/>
				
					<linearGradient id="SVGID_00000081632732488893982200000002858539132104589728_" gradientUnits="userSpaceOnUse" x1="-352.6083" y1="2505.9956" x2="-347.5503" y2="2693.1384" gradientTransform="matrix(0.8698 -0.4935 0.4935 0.8698 953.2327 -1091.0162)">
					<stop  offset="0.0036" style="stop-color:#F36F56"/>
					<stop  offset="1" style="stop-color:#FFC444"/>
				</linearGradient>
				<path style="fill:url(#SVGID_00000081632732488893982200000002858539132104589728_);" d="M1943.803,1335.849
					c0,0,6.284,15.523,15.353,25.608c8.197,9.114,33.843,7.604,39.403,8.321c5.559,0.717-5.537,12.472-18.669,18.649
					c-13.13,6.178-53.104,16.819-61.935,14.133c-8.832-2.685,3.947-6.762,12.404-13.761c8.458-6.999,7.364-27.99,2.601-36.01
					C1928.199,1344.768,1943.803,1335.849,1943.803,1335.849z"/>
				<g>
					
						<linearGradient id="SVGID_00000147222367596582920250000003352873537114282897_" gradientUnits="userSpaceOnUse" x1="372.8715" y1="2312.1155" x2="338.8677" y2="2367.1216" gradientTransform="matrix(0.7929 -0.6094 0.6094 0.7929 237.7847 -268.1027)">
						<stop  offset="0" style="stop-color:#FFC444"/>
						<stop  offset="0.9964" style="stop-color:#F36F56"/>
					</linearGradient>
					<path style="fill:url(#SVGID_00000147222367596582920250000003352873537114282897_);" d="M1922.628,1361.733
						c-5.098-8.772-2.719-18.729-2.184-20.881c2.241-9.007,3.06-10.37,4.75-12.266l2.387-2.487c0,0,0.148-0.108,0.305-0.214
						c1.656-1.12,7.819-2.913,9.147-2.97c4.242-0.18,12.755,15.093,17.517,38.566c0.782,1.696,1.564,3.393,2.345,5.09
						c8.259-4.314,11.071-4.386,11.933-3.382c1.869,2.175,1.091,19.068-6.148,24.932c-9.078,7.353-23.84-15.349-23.925-17.634
						C1936.914,1370.063,1926.384,1368.194,1922.628,1361.733z"/>
					
						<linearGradient id="SVGID_00000049216862842116710520000016740327581741750156_" gradientUnits="userSpaceOnUse" x1="-318.5894" y1="1635.8712" x2="-350.2665" y2="1687.1136" gradientTransform="matrix(0.6265 -0.7793 0.7793 0.6265 853.3584 65.6927)">
						<stop  offset="0" style="stop-color:#FFC444"/>
						<stop  offset="0.9964" style="stop-color:#F36F56"/>
					</linearGradient>
					<path style="fill:url(#SVGID_00000049216862842116710520000016740327581741750156_);" d="M1931.765,1349.932
						c1.134-2.871,4.81-1.399,5.636,1.723c0.826,3.121-1.363,7.153-4.462,7.295
						C1929.842,1359.093,1930.239,1353.796,1931.765,1349.932z"/>
					
						<linearGradient id="SVGID_00000122683062234716485130000001068748555789321602_" gradientUnits="userSpaceOnUse" x1="1180.3617" y1="1924.4982" x2="962.2733" y2="2150.1941" gradientTransform="matrix(0.9339 -0.3576 0.3576 0.9339 407.4672 -197.234)">
						<stop  offset="0" style="stop-color:#AB316D"/>
						<stop  offset="1" style="stop-color:#792D3D"/>
					</linearGradient>
					<path style="fill:url(#SVGID_00000122683062234716485130000001068748555789321602_);" d="M2316.589,1250.883
						c-37.614-27.948-102.758,3.625-112.721,8.454c-28.146,13.642-36.683,27.645-64.815,30.998
						c-25.337,3.02-26.793-7.341-50.724-5.636c-48.554,3.459-63.282,47.588-95.813,39.453c-8.129-2.033-17.822-7.443-40.27-12.838
						c-5.625-1.352-14.486-3.284-22.548,1.12c-1.826,0.998-7.926,4.282-8.819,10.538c-0.724,5.069,2.355,10.55,5.946,13.446
						c2.148,1.731,2.985,1.444,3.96,2.909c2.739,4.115-3.074,11.293-1.164,12.957c1.364,1.19,4.676-2.174,6.672-0.899
						c2.188,1.398-0.603,6.193,1.389,12.406c-1.591,4.713,0.535,11.764,5.433,19.619c7.379,11.833,12.561,16.727,22.072,24.452
						c26.344,21.399,19.541,44.742,38.601,51.555c13.585,4.857,19.659-6.068,46.59-10.594c24.134-4.056,43.251,0.684,60.495,4.959
						c46.516,11.533,46.544,30.012,78.905,36.634c38.229,7.823,87.585-7.858,107.085-39.452
						c13.81-22.376,0.578-33.184,16.908-73.269c13.009-31.931,24.875-33.593,28.18-56.36
						C2345.265,1298.509,2338.166,1266.916,2316.589,1250.883z"/>
				</g>
			</g>
		</g>
		<g>
			<path style="opacity:0.75;fill:#F4F7FA;" d="M1725.708,1837.837c0-327.638-278.943-593.243-623.036-593.243
				c-344.093,0-623.036,265.604-623.036,593.243c0,198.836,102.741,374.817,260.429,482.456
				c66.898,45.665,107.469,120.93,107.469,201.928v45.398c0,98.64,79.964,178.604,178.604,178.604h153.068
				c98.64,0,178.604-79.963,178.604-178.604v-45.398c0-80.998,40.571-156.264,107.469-201.928
				C1622.966,2212.654,1725.708,2036.672,1725.708,1837.837z"/>
			<ellipse style="fill:#AABBCC;" cx="1102.672" cy="3010.728" rx="138.206" ry="73.17"/>
			
				<linearGradient id="SVGID_00000158000309640713805150000012784459013059083163_" gradientUnits="userSpaceOnUse" x1="925.9971" y1="2858.3123" x2="1082.0686" y2="2944.5623">
				<stop  offset="0" style="stop-color:#FFFFFF"/>
				<stop  offset="1" style="stop-color:#D8DEE8"/>
			</linearGradient>
			<path style="fill:url(#SVGID_00000158000309640713805150000012784459013059083163_);" d="M919.046,2880.016v74.723
				c0,25.281,14.387,48.444,37.205,59.327c31.679,15.107,84.349,31.687,160.896,29.725c62.099-1.591,102.593-11.733,128.338-22.387
				c24.871-10.293,40.812-34.887,40.812-61.803v-41.343L919.046,2880.016z"/>
			<path style="fill:#AABBCC;" d="M919.046,2945.467c5.596,5.441,12.08,10.058,19.36,13.529
				c35.54,16.949,268.331,54.819,324.484,33.719c7.292-2.739,13.853-6.405,19.599-10.827c2.457-7.056,3.807-14.567,3.807-22.287
				v-41.344l-367.251-38.241V2945.467z"/>
			
				<linearGradient id="SVGID_00000058574381678003560850000016988977463781485701_" gradientUnits="userSpaceOnUse" x1="952.062" y1="2811.1467" x2="1108.1337" y2="2897.3967">
				<stop  offset="0" style="stop-color:#FFFFFF"/>
				<stop  offset="1" style="stop-color:#D8DEE8"/>
			</linearGradient>
			<path style="fill:url(#SVGID_00000058574381678003560850000016988977463781485701_);" d="M935.35,2829.176
				c-20.684-2.154-38.684,14.069-38.684,34.865v2.117c0,28.362,16.14,54.349,41.74,66.557
				c35.54,16.949,268.331,54.819,324.484,33.72c28.268-10.621,45.786-34.89,45.786-65.088v-1.705
				c0-17.954-13.566-33.006-31.423-34.865L935.35,2829.176z"/>
			<path style="fill:#BFC8D6;" d="M1277.254,2864.779l-341.904-35.602c-13.489-1.405-25.8,5.032-32.758,15.43
				c6.868,16.184,19.375,29.721,35.815,37.562c35.54,16.949,278.245,59.756,324.484,37.969
				c17.999-8.483,32.114-22.801,39.678-40.206C1296.934,2871.668,1287.866,2865.885,1277.254,2864.779z"/>
			
				<linearGradient id="SVGID_00000060741840261490583020000017008478984766286751_" gradientUnits="userSpaceOnUse" x1="1001.7382" y1="2721.2568" x2="1157.8099" y2="2807.5068">
				<stop  offset="0" style="stop-color:#FFFFFF"/>
				<stop  offset="1" style="stop-color:#D8DEE8"/>
			</linearGradient>
			<path style="fill:url(#SVGID_00000060741840261490583020000017008478984766286751_);" d="M921.974,2708.115
				c-13.977,0-25.307,11.33-25.307,25.307v58.523c0,28.362,16.14,54.348,41.74,66.557c35.54,16.949,278.245,59.757,324.484,37.968
				c27.317-12.873,45.786-39.138,45.786-69.336v-93.711c0-13.977-11.331-25.307-25.307-25.307H921.974z"/>
			<ellipse style="fill:#BFC8D6;" cx="1102.672" cy="2726.333" rx="200.91" ry="47.5"/>
			
				<linearGradient id="SVGID_00000083050742090844649200000012162016256494298251_" gradientUnits="userSpaceOnUse" x1="1014.5237" y1="1714.3247" x2="1819.4764" y2="2992.291">
				<stop  offset="0" style="stop-color:#FCB148"/>
				<stop  offset="0.0521" style="stop-color:#FDBA46"/>
				<stop  offset="0.1424" style="stop-color:#FFC244"/>
				<stop  offset="0.3183" style="stop-color:#FFC444"/>
				<stop  offset="0.4849" style="stop-color:#FDB946"/>
				<stop  offset="0.7754" style="stop-color:#F99C4D"/>
				<stop  offset="0.8658" style="stop-color:#F8924F"/>
				<stop  offset="1" style="stop-color:#F8924F"/>
			</linearGradient>
			<path style="fill:url(#SVGID_00000083050742090844649200000012162016256494298251_);" d="M1725.708,1837.837
				c0-327.638-278.943-593.243-623.036-593.243c-344.093,0-623.036,265.604-623.036,593.243
				c0,198.836,102.741,374.817,260.429,482.456c66.898,45.665,107.469,120.93,107.469,201.928v45.398
				c0,98.64,79.964,178.604,178.604,178.604h153.068c98.64,0,178.604-79.963,178.604-178.604v-45.398
				c0-80.998,40.571-156.264,107.469-201.928C1622.966,2212.654,1725.708,2036.672,1725.708,1837.837z"/>
			<ellipse style="opacity:0.5;fill:#F4F7FA;" cx="1102.672" cy="2688.878" rx="147.01" ry="34.757"/>
			<g>
				
					<linearGradient id="SVGID_00000078761829732575522810000006060126765544457095_" gradientUnits="userSpaceOnUse" x1="867.4688" y1="2698.3438" x2="1031.6033" y2="2218.8506">
					<stop  offset="0.494" style="stop-color:#EBEFF2"/>
					<stop  offset="1" style="stop-color:#FFFFFF"/>
				</linearGradient>
				<path style="fill:url(#SVGID_00000078761829732575522810000006060126765544457095_);" d="M1064.361,2710.119
					c-4.21,0-7.865-3.128-8.417-7.413l-108.15-841.059c-0.598-4.654,2.69-8.91,7.344-9.507c4.663-0.626,8.91,2.688,9.509,7.342
					l108.151,841.059c0.597,4.654-2.69,8.911-7.345,9.508C1065.087,2710.098,1064.722,2710.119,1064.361,2710.119z"/>
				
					<linearGradient id="SVGID_00000049212806705708249080000014279758900232776865_" gradientUnits="userSpaceOnUse" x1="1024.3862" y1="2752.0574" x2="1188.5208" y2="2272.564">
					<stop  offset="0.494" style="stop-color:#EBEFF2"/>
					<stop  offset="1" style="stop-color:#FFFFFF"/>
				</linearGradient>
				<path style="fill:url(#SVGID_00000049212806705708249080000014279758900232776865_);" d="M1131.536,2710.119
					c-0.361,0-0.726-0.021-1.093-0.071c-4.654-0.597-7.942-4.854-7.344-9.508l108.152-841.059c0.599-4.654,4.851-7.972,9.51-7.342
					c4.654,0.597,7.942,4.854,7.344,9.507l-108.152,841.059C1139.401,2706.991,1135.746,2710.119,1131.536,2710.119z"/>
				
					<linearGradient id="SVGID_00000088816160598620359450000012339859447844670118_" gradientUnits="userSpaceOnUse" x1="810.3129" y1="2678.7791" x2="974.4474" y2="2199.2856">
					<stop  offset="0.494" style="stop-color:#EBEFF2"/>
					<stop  offset="1" style="stop-color:#FFFFFF"/>
				</linearGradient>
				<path style="fill:url(#SVGID_00000088816160598620359450000012339859447844670118_);" d="M1219.615,1860.967
					c-2.76,0-5.47-1.344-7.102-3.82l-29.848-45.282c-0.307-0.465-0.78-0.735-1.212-0.681c-0.74,0.017-1.053,0.543-1.155,0.713
					l-19.706,33.008c-3.267,5.467-8.991,8.827-15.315,8.985c-6.285,0.203-12.224-2.916-15.769-8.226l-27.059-40.57
					c-0.295-0.44-0.689-0.668-1.17-0.672c-0.574,0.108-0.844,0.203-1.132,0.618l-23.772,34.359
					c-3.432,4.965-9.061,7.935-15.058,7.948h-0.037c-5.994,0-11.634-2.953-15.091-7.911l-34.271-49.094
					c-0.309-0.444-0.744-0.597-1.209-0.643c-0.49,0.021-0.873,0.27-1.143,0.734l-31.28,53.997c-2.35,4.057-7.552,5.443-11.609,3.091
					c-4.061-2.352-5.444-7.55-3.092-11.61l31.28-53.998c3.181-5.488,8.838-8.922,15.131-9.188
					c6.243-0.319,12.223,2.688,15.856,7.894l34.268,49.094c0.297,0.423,0.687,0.643,1.158,0.643h0.002
					c0.46-0.004,0.838-0.212,1.124-0.622l23.771-34.36c3.479-5.023,9.206-8.014,15.249-7.943c6.088,0.054,11.756,3.132,15.161,8.238
					l27.057,40.565c0.305,0.456,0.761,0.838,1.211,0.668c0.737-0.017,1.047-0.54,1.15-0.709l19.706-33.007
					c3.279-5.488,9.024-8.848,15.369-8.99c6.281-0.141,12.25,2.97,15.774,8.318l29.848,45.282c2.582,3.915,1.5,9.184-2.419,11.768
					C1222.842,1860.515,1221.22,1860.967,1219.615,1860.967z"/>
			</g>
			
				<linearGradient id="SVGID_00000151504232512403248250000000999200696643569331_" gradientUnits="userSpaceOnUse" x1="1042.7712" y1="1426.2601" x2="882.3251" y2="2748.5552">
				<stop  offset="0" style="stop-color:#FCB148"/>
				<stop  offset="0.0521" style="stop-color:#FDBA46"/>
				<stop  offset="0.1424" style="stop-color:#FFC244"/>
				<stop  offset="0.3183" style="stop-color:#FFC444"/>
				<stop  offset="0.4849" style="stop-color:#FDB946"/>
				<stop  offset="0.7754" style="stop-color:#F99C4D"/>
				<stop  offset="0.8658" style="stop-color:#F8924F"/>
				<stop  offset="1" style="stop-color:#F8924F"/>
			</linearGradient>
			<path style="opacity:0.3;fill:url(#SVGID_00000151504232512403248250000000999200696643569331_);" d="M1113.978,2305.767
				c13.347-228.655,398.818-282.168,397.166-486.37c-1.017-125.767-154.194-219.168-186.902-237.875
				c-241.016-137.848-537.67,21.336-598.936-91.327c-15.254-28.05-8.102-58.585-4.029-75.974c6.156-26.281,20.094-50.76,40.77-73.15
				C592.005,1447,479.635,1629.909,479.635,1837.837c0,198.836,102.741,374.818,260.429,482.456
				c66.899,45.666,107.469,120.931,107.469,201.929v45.398c0,98.64,79.964,178.603,178.604,178.603h153.068
				c98.64,0,178.604-79.963,178.604-178.603v-36.297c-21.068,16.145-45.264,27.405-71.796,27.188
				C1193.951,2557.753,1107.336,2419.553,1113.978,2305.767z"/>
			<ellipse style="opacity:0.44;fill:#F4F7FA;" cx="1112.637" cy="1860.967" rx="536.134" ry="517.043"/>
		</g>
	</g>
</g>
</svg>
